<?xml version="1.0" standalone="no"?>
<!DOCTYPE svg PUBLIC "-//W3C//DTD SVG 20010904//EN"
 "http://www.w3.org/TR/2001/REC-SVG-20010904/DTD/svg10.dtd">
<svg version="1.0" xmlns="http://www.w3.org/2000/svg"
 width="543.000000pt" height="543.000000pt" viewBox="0 0 543.000000 543.000000"
 preserveAspectRatio="xMidYMid meet">
<metadata>
Created by potrace 1.11, written by Peter Selinger 2001-2013
</metadata>
<g transform="translate(0.000000,543.000000) scale(0.100000,-0.100000)"
fill="#000000" stroke="none">
<path d="M208 5423 c7 -3 16 -2 19 1 4 3 -2 6 -13 5 -11 0 -14 -3 -6 -6z"/>
<path d="M254 5423 c10 -10 46 -11 46 -1 0 4 -12 8 -27 8 -14 0 -23 -3 -19 -7z"/>
<path d="M330 5410 c0 -24 15 -27 24 -4 9 22 8 24 -9 24 -8 0 -15 -9 -15 -20z"/>
<path d="M370 5425 c0 -3 4 -13 9 -23 5 -9 12 -26 16 -36 9 -31 18 -10 11 29
-4 21 -13 35 -21 35 -8 0 -15 -2 -15 -5z"/>
<path d="M470 5413 c0 -42 13 -63 36 -63 13 0 24 -4 24 -10 0 -5 16 -12 35
-16 43 -8 47 -14 30 -38 -11 -14 -22 -17 -46 -12 -25 5 -32 2 -36 -14 -8 -30
-26 -25 -70 22 -9 9 -21 14 -27 11 -17 -11 -96 -20 -96 -12 0 4 -16 5 -35 2
-26 -4 -36 -2 -41 11 -4 11 -10 13 -18 7 -6 -5 -41 -8 -78 -6 -38 2 -68 -1
-68 -5 0 -5 -7 -7 -15 -4 -8 4 -15 2 -15 -3 0 -23 270 -73 427 -79 62 -2 130
-6 150 -8 155 -18 569 -26 601 -12 18 7 26 6 33 -5 6 -10 9 -10 9 -1 0 6 5 12
11 12 7 0 8 -7 4 -17 -11 -28 -11 -31 0 -30 6 1 9 7 7 14 -2 7 3 13 9 13 7 0
10 3 6 6 -3 4 0 13 8 21 8 8 15 29 15 46 1 18 7 59 15 92 25 103 47 94 -220
95 -175 0 -235 -2 -235 -11 0 -11 -28 -76 -64 -149 -11 -24 -15 -25 -96 -23
-47 2 -92 4 -101 5 -20 3 -23 48 -3 48 8 0 14 6 14 14 0 8 8 21 18 28 18 13
62 71 62 82 0 3 -56 6 -125 6 -112 0 -125 -2 -125 -17z m580 -158 c-7 -9 -15
-13 -17 -11 -7 7 7 26 19 26 6 0 6 -6 -2 -15z"/>
<path d="M746 5421 c5 -4 23 -11 41 -14 26 -5 31 -3 26 8 -3 9 -19 15 -41 15
-21 0 -32 -4 -26 -9z"/>
<path d="M1658 5373 c-2 -32 0 -112 4 -178 3 -66 7 -208 7 -316 l1 -196 26
-28 c28 -30 46 -22 37 16 -3 10 1 21 8 24 13 5 15 160 9 723 0 8 -16 12 -45
12 l-44 0 -3 -57z"/>
<path d="M2755 5420 c4 -6 28 -9 56 -6 36 3 49 0 49 -9 0 -7 -5 -15 -12 -17
-7 -3 -9 -12 -4 -24 7 -17 8 -18 17 -2 5 9 15 15 23 12 7 -3 19 2 26 11 7 8
21 15 32 15 15 0 18 -5 14 -22 -3 -13 -3 -18 -1 -12 9 18 180 6 248 -17 31
-10 64 -19 72 -19 8 0 28 -8 44 -18 l29 -18 -26 -11 c-15 -6 -49 -16 -75 -23
-53 -14 -88 -49 -80 -80 3 -11 0 -20 -6 -20 -6 0 -11 7 -11 16 0 10 -6 14 -15
11 -8 -3 -45 3 -82 14 -52 15 -104 21 -220 23 -137 2 -155 1 -173 -16 -10 -10
-27 -18 -37 -17 -16 0 -16 1 2 9 19 8 19 9 -2 9 -12 1 -25 -3 -28 -9 -3 -5
-13 -10 -22 -10 -9 0 -22 -8 -29 -17 -13 -17 -13 -17 -14 0 0 22 -11 22 -38
-3 -12 -12 -22 -17 -22 -13 0 4 -16 8 -35 8 -28 0 -34 -3 -29 -17 2 -9 0 -19
-6 -23 -6 -3 -8 -10 -5 -15 3 -5 -4 -14 -16 -20 -11 -7 -18 -14 -15 -17 3 -4
15 2 25 11 28 26 46 11 26 -20 -21 -32 -11 -63 23 -69 15 -3 41 -10 57 -16 50
-17 212 -24 229 -10 20 17 246 17 306 1 25 -6 55 -13 67 -14 12 -1 28 -7 35
-12 19 -14 56 -30 107 -45 59 -18 151 -78 214 -140 27 -27 52 -48 54 -45 6 6
-31 80 -44 89 -15 9 -17 37 -3 37 5 0 13 -7 18 -16 21 -38 53 56 72 214 14
111 22 137 53 163 51 42 74 8 52 -78 -29 -117 -38 -323 -14 -323 5 0 9 6 9 14
0 8 4 17 9 21 6 3 7 -9 4 -30 -4 -26 -2 -35 8 -35 11 0 11 -2 -1 -10 -13 -8
-12 -10 3 -10 9 0 17 3 17 8 0 4 14 8 31 9 17 1 47 13 67 25 45 28 161 78 181
78 8 0 28 4 45 10 43 13 196 49 282 65 39 7 81 18 93 25 13 6 77 23 144 36
170 35 192 40 205 48 11 6 50 12 267 36 50 6 128 19 175 30 47 11 95 22 107
25 11 3 49 28 82 56 l61 51 0 89 0 90 -117 -3 c-118 -4 -179 -18 -197 -47 -7
-11 -10 -11 -17 0 -14 22 -11 26 29 37 25 7 -349 10 -1171 11 -834 1 -1206 -2
-1202 -9z m2316 -55 c1 -17 -18 -17 -25 0 -4 11 -1 15 10 13 8 -2 15 -7 15
-13z m-1562 -142 l55 -17 -85 -41 c-46 -22 -100 -51 -119 -63 -36 -23 -80 -29
-80 -12 0 5 23 17 50 27 48 17 65 33 35 33 -8 0 -37 -9 -65 -20 -49 -19 -53
-20 -81 -3 -48 28 -34 48 76 103 47 25 126 22 214 -7z m41 -52 c0 -5 -20 -28
-45 -52 -25 -24 -45 -49 -45 -56 0 -6 -9 -15 -20 -18 -11 -3 -20 -10 -20 -15
0 -9 -60 -45 -63 -38 -1 2 -7 13 -14 25 -11 19 -8 23 25 45 81 54 122 78 130
78 5 0 17 9 27 20 20 22 25 24 25 11z m-30 -171 c0 -5 -11 -10 -25 -10 -14 0
-25 5 -25 10 0 6 11 10 25 10 14 0 25 -4 25 -10z m-17 -73 c-9 -36 -23 -49
-39 -36 -11 9 -14 6 -14 -16 0 -41 -6 -28 -13 28 -6 42 -5 47 13 47 10 0 22 5
25 10 11 18 33 -9 28 -33z"/>
<path d="M840 5412 c0 -5 7 -13 16 -16 10 -4 14 -1 12 6 -5 15 -28 23 -28 10z"/>
<path d="M815 5350 c-3 -5 -1 -10 4 -10 6 0 11 5 11 10 0 6 -2 10 -4 10 -3 0
-8 -4 -11 -10z"/>
<path d="M1528 5293 c7 -3 16 -2 19 1 4 3 -2 6 -13 5 -11 0 -14 -3 -6 -6z"/>
<path d="M2350 5130 c-8 -5 -10 -10 -5 -10 6 0 17 5 25 10 8 5 11 10 5 10 -5
0 -17 -5 -25 -10z"/>
<path d="M2235 5091 c3 -5 0 -13 -6 -17 -8 -4 -7 -9 2 -15 24 -15 37 -10 35
16 -1 17 -7 25 -19 25 -10 0 -16 -4 -12 -9z"/>
<path d="M2211 5033 c-8 -9 -23 -12 -45 -7 -28 5 -34 2 -39 -15 -3 -13 -13
-21 -25 -21 -12 0 -35 -13 -53 -30 -18 -16 -35 -27 -39 -25 -4 2 -21 -9 -39
-25 -18 -17 -36 -30 -42 -30 -5 0 -8 -5 -6 -11 1 -6 -11 -18 -28 -28 -59 -33
-85 -53 -85 -67 0 -19 16 -18 24 1 3 8 12 15 20 15 7 0 16 7 20 15 3 8 14 15
24 15 10 0 27 9 37 20 11 13 25 18 37 14 10 -3 18 -1 18 4 0 6 14 15 31 21 24
8 29 15 24 31 -4 11 -2 20 4 20 6 0 11 -7 11 -15 0 -8 5 -15 11 -15 7 0 9 10
4 27 -5 23 -4 25 9 14 20 -17 66 -6 66 15 0 10 6 13 19 9 12 -3 21 0 24 10 4
8 12 12 19 10 8 -3 22 1 33 9 20 15 20 15 0 34 -18 16 -23 17 -34 5z"/>
<path d="M2290 5020 c0 -5 4 -10 9 -10 6 0 13 5 16 10 3 6 -1 10 -9 10 -9 0
-16 -4 -16 -10z"/>
<path d="M880 4909 c-14 -6 -45 -12 -69 -15 -54 -5 -70 -17 -63 -49 3 -20 10
-25 33 -25 22 0 27 4 23 18 -4 10 -3 13 3 6 8 -11 95 -12 123 -1 28 11 75 3
72 -12 -2 -8 3 -18 10 -22 19 -13 28 -11 28 6 0 8 8 15 18 14 10 0 12 -3 5 -6
-7 -2 -13 -11 -13 -19 0 -10 11 -13 40 -11 22 1 40 5 40 10 0 15 27 6 47 -17
18 -21 19 -25 6 -30 -8 -3 -24 -4 -36 -1 -12 3 -78 7 -147 9 -69 2 -137 8
-151 14 -15 6 -65 11 -111 11 -47 0 -96 4 -109 9 -13 5 -62 12 -109 16 -47 4
-116 14 -153 22 -38 8 -83 14 -100 13 -46 -2 95 -36 203 -50 47 -5 108 -15
135 -21 28 -5 97 -14 155 -18 58 -5 143 -13 190 -19 47 -5 138 -12 202 -15
129 -5 136 -2 143 54 3 18 7 41 11 52 5 16 2 19 -14 14 -13 -4 -22 -1 -26 9
-6 17 -36 21 -36 5 0 -11 -23 -8 -55 6 -11 5 -46 9 -77 9 -32 0 -58 3 -58 6 0
9 -41 21 -62 19 -10 -1 -18 4 -18 9 0 14 -46 13 -80 0z m362 -106 c19 -17 25
-39 8 -28 -5 3 -10 1 -10 -6 0 -7 10 -9 24 -7 15 3 23 1 20 -6 -3 -7 -18 -13
-34 -14 -26 -2 -30 1 -30 22 0 13 -5 26 -12 28 -6 2 -8 10 -4 16 10 16 16 15
38 -5z"/>
<path d="M932 4819 c2 -6 7 -10 11 -10 4 1 15 1 25 1 14 0 15 2 2 10 -20 13
-43 13 -38 -1z"/>
<path d="M1400 4810 c0 -8 9 -28 20 -45 25 -38 25 -21 0 25 -11 19 -19 28 -20
20z"/>
<path d="M940 4786 c0 -2 7 -7 16 -10 8 -3 12 -2 9 4 -6 10 -25 14 -25 6z"/>
<path d="M1917 4783 c-4 -3 -7 -11 -7 -17 0 -6 5 -5 12 2 6 6 9 14 7 17 -3 3
-9 2 -12 -2z"/>
<path d="M1048 4773 c7 -3 16 -2 19 1 4 3 -2 6 -13 5 -11 0 -14 -3 -6 -6z"/>
<path d="M1832 4744 c-7 -8 -8 -14 -3 -14 10 0 25 19 20 25 -2 1 -10 -3 -17
-11z"/>
<path d="M1450 4736 c0 -3 9 -10 20 -16 11 -6 20 -8 20 -6 0 3 -9 10 -20 16
-11 6 -20 8 -20 6z"/>
<path d="M1595 4709 c-28 -6 -26 -7 13 -8 42 -1 53 3 30 11 -7 2 -26 1 -43 -3z"/>
<path d="M3520 4681 c0 -6 4 -13 10 -16 6 -3 7 1 4 9 -7 18 -14 21 -14 7z"/>
<path d="M3550 4640 c0 -5 5 -10 10 -10 6 0 10 5 10 10 0 6 -4 10 -10 10 -5 0
-10 -4 -10 -10z"/>
<path d="M3606 4547 c3 -10 9 -15 12 -12 3 3 0 11 -7 18 -10 9 -11 8 -5 -6z"/>
<path d="M3650 4451 c0 -5 5 -13 10 -16 6 -3 10 -2 10 4 0 5 -4 13 -10 16 -5
3 -10 2 -10 -4z"/>
<path d="M0 4288 l0 -39 42 3 c36 3 43 7 49 31 8 29 7 29 -63 40 -27 4 -28 2
-28 -35z"/>
<path d="M895 4309 c4 -5 22 -9 42 -9 20 0 33 3 29 7 -11 11 -77 13 -71 2z"/>
<path d="M1005 4311 c-3 -5 -1 -12 5 -16 5 -3 10 1 10 9 0 18 -6 21 -15 7z"/>
<path d="M1180 4290 c19 -16 38 -29 41 -30 16 -1 60 -104 57 -133 -4 -40 -23
-33 -23 9 0 43 -49 114 -99 145 -41 25 -43 26 -55 7 -10 -16 -6 -23 24 -53 34
-35 44 -70 29 -109 -10 -26 -25 -18 -18 9 5 18 -1 35 -20 60 -15 19 -30 35
-35 35 -4 0 -17 -18 -29 -39 -12 -21 -29 -41 -37 -45 -9 -3 -12 -12 -9 -21 4
-9 13 -14 20 -11 8 3 14 1 14 -3 0 -5 18 -12 40 -16 41 -7 57 -35 20 -35 -11
0 -20 4 -20 9 0 5 -31 9 -70 10 -68 1 -70 1 -70 -23 0 -23 1 -24 136 -31 122
-6 137 -9 141 -26 5 -17 7 -17 25 7 11 14 18 33 15 44 -3 12 0 20 7 20 6 0 20
26 31 58 25 78 37 90 68 69 23 -15 24 -15 19 9 -2 14 0 24 7 24 6 0 11 -7 11
-15 0 -8 5 -15 11 -15 5 0 8 4 4 9 -3 6 3 9 14 8 12 -1 19 -8 18 -18 -1 -10
-5 -15 -9 -13 -4 3 -8 0 -8 -6 0 -6 11 -15 25 -20 l25 -10 1 -212 2 -213 13
145 c7 80 15 189 18 242 3 54 7 103 8 110 4 16 -33 23 -42 9 -3 -7 -14 -9 -24
-5 -14 5 -15 9 -5 15 11 6 10 9 -4 15 -23 8 -22 23 1 17 13 -3 18 2 18 16 0
18 -7 21 -38 21 -21 0 -38 -4 -38 -10 0 -5 7 -10 15 -10 14 0 13 -3 -1 -25 -9
-14 -21 -25 -27 -25 -5 0 -3 8 6 18 10 10 14 22 10 25 -12 13 -24 7 -33 -15
-5 -13 -9 -16 -9 -8 0 8 3 22 9 30 16 25 -13 32 -32 7 -14 -17 -18 -19 -18 -6
0 23 -21 29 -98 29 l-66 0 34 -30z m250 -50 c0 -5 -4 -10 -10 -10 -5 0 -10 5
-10 10 0 6 5 10 10 10 6 0 10 -4 10 -10z"/>
<path d="M253 4303 c-13 -2 -23 -8 -23 -13 0 -8 31 -6 115 10 39 8 38 8 -15 8
-30 -1 -65 -3 -77 -5z"/>
<path d="M782 4282 c-15 -31 -10 -38 12 -17 9 9 16 14 16 10 0 -3 14 2 31 10
17 9 28 19 25 22 -3 4 -18 0 -32 -7 -18 -10 -27 -11 -32 -3 -5 7 -12 2 -20
-15z"/>
<path d="M457 4273 c-1 -1 -53 -3 -115 -4 -62 -1 -115 -7 -119 -12 -6 -11 342
-6 360 5 6 4 8 8 2 9 -14 3 -126 4 -128 2z"/>
<path d="M741 4244 c0 -11 3 -14 6 -6 3 7 2 16 -1 19 -3 4 -6 -2 -5 -13z"/>
<path d="M871 4244 c-32 -14 -33 -16 -15 -30 18 -15 18 -15 -7 -10 -36 8 -58
-17 -35 -39 13 -13 19 -14 36 -3 11 7 20 17 20 23 0 5 5 3 10 -5 5 -8 10 -22
10 -30 0 -13 -1 -13 -10 0 -5 8 -10 11 -10 5 0 -5 4 -16 8 -23 6 -9 18 -3 43
22 43 44 54 57 68 84 11 21 10 22 -36 21 -26 0 -63 -7 -82 -15z"/>
<path d="M795 4103 c5 -45 -3 -53 -29 -27 -9 8 -16 11 -16 6 0 -6 -23 -8 -57
-5 -42 4 -55 2 -48 -6 6 -6 47 -13 92 -15 79 -5 83 -4 112 23 25 23 28 31 17
40 -10 8 -16 8 -25 -3 -15 -18 -38 -11 -45 12 -3 10 -3 -2 -1 -25z"/>
<path d="M1350 4116 c0 -9 5 -16 10 -16 6 0 10 4 10 9 0 6 -4 13 -10 16 -5 3
-10 -1 -10 -9z"/>
<path d="M50 4040 c0 -9 14 -31 30 -50 31 -35 31 -35 16 -5 -22 46 -45 73 -46
55z"/>
<path d="M505 3970 c-6 -10 6 -13 40 -11 16 2 17 0 5 -8 -21 -15 -8 -22 47
-26 70 -5 132 17 133 47 0 4 -11 3 -24 -2 -13 -5 -26 -6 -29 -3 -10 10 -166
12 -172 3z"/>
<path d="M2360 3969 c-30 -3 -77 -17 -104 -29 -39 -19 -46 -25 -34 -34 11 -8
12 -15 4 -28 -15 -24 -7 -28 63 -33 61 -3 132 -30 138 -51 2 -7 -27 -13 -81
-18 -103 -7 -178 -34 -235 -82 -34 -30 -73 -83 -76 -104 0 -3 -4 -11 -8 -17
-12 -18 -3 -16 53 12 27 14 65 25 85 25 22 0 38 6 41 15 5 13 10 12 34 -5 28
-20 104 -28 125 -12 6 4 22 23 35 42 13 19 25 37 27 39 1 2 9 -2 18 -9 20 -17
20 -80 0 -80 -8 0 -15 -7 -15 -15 0 -12 -4 -13 -19 -6 -13 7 -23 6 -35 -2 -16
-12 -15 -14 9 -25 40 -19 26 -34 -55 -62 -85 -29 -70 -39 23 -16 34 8 99 21
145 28 79 12 82 13 82 39 0 20 7 30 30 39 22 9 29 17 25 30 -7 22 12 37 28 21
18 -18 61 -13 75 9 7 12 17 18 22 15 9 -6 15 21 11 51 -1 7 4 25 11 40 6 16
13 53 14 83 2 45 -2 58 -20 72 -11 10 -25 18 -29 19 -4 0 -29 9 -54 21 -29 13
-57 19 -74 15 -15 -3 -29 -1 -31 4 -5 14 -58 24 -58 10 0 -6 -5 -8 -12 -4 -15
10 -87 11 -158 3z"/>
<path d="M1213 3920 c0 -30 2 -43 4 -27 2 15 2 39 0 55 -2 15 -4 2 -4 -28z"/>
<path d="M3316 3948 c-14 -20 -16 -20 -22 -4 -5 14 -9 15 -15 5 -4 -7 -29 -15
-55 -16 -27 -2 -52 -9 -56 -16 -6 -9 -10 -8 -18 3 -5 8 -10 12 -11 8 -1 -5 -3
-12 -4 -18 -1 -5 -3 -15 -4 -21 0 -5 -5 -8 -10 -5 -16 10 -20 -34 -9 -93 10
-54 9 -60 -13 -90 -53 -72 -10 -203 81 -248 46 -23 122 -44 136 -39 7 3 11 12
8 19 -3 9 3 16 15 20 11 3 21 1 23 -3 2 -5 45 -4 97 1 93 10 94 10 121 -16 25
-24 57 -35 45 -15 -3 6 -1 10 4 10 14 0 14 29 -1 85 -19 72 -80 128 -167 155
-39 13 -71 26 -71 30 0 19 93 29 104 12 4 -7 57 -21 145 -38 22 -5 23 -3 16
33 -5 21 -9 48 -10 61 -3 48 -83 108 -156 117 -52 6 -56 8 -51 31 3 19 1 23
-11 18 -9 -3 -30 4 -46 15 -37 26 -46 26 -65 -1z m-182 -417 c-7 -7 -12 3 -18
34 l-6 30 14 -30 c8 -16 12 -32 10 -34z m153 23 c10 -22 9 -25 -5 -22 -9 2
-18 13 -20 26 -5 30 10 28 25 -4z m189 -48 c1 -8 -9 -16 -22 -19 -33 -6 -37 2
-11 23 23 19 30 18 33 -4z m-141 -17 c5 -6 5 -9 -2 -9 -6 0 -13 -9 -16 -20 -3
-11 -13 -20 -22 -20 -11 0 -15 6 -10 19 4 13 0 20 -16 24 -12 3 -18 10 -14 17
7 12 63 4 80 -11z"/>
<path d="M230 3933 c0 -5 5 -14 11 -20 9 -9 2 -11 -27 -8 -21 2 -43 4 -49 5
-5 1 -17 1 -25 0 -18 -2 126 -35 225 -50 39 -6 131 -22 205 -35 74 -14 162
-27 195 -31 33 -3 96 -14 140 -24 102 -24 205 -34 250 -26 44 9 76 60 56 92
-11 17 -11 17 -6 -4 6 -21 5 -21 -18 -11 -24 11 -24 12 -9 39 9 16 14 31 11
35 -6 5 -58 -13 -69 -25 -6 -6 -49 -26 -73 -34 -11 -3 -16 -2 -12 4 3 6 -3 10
-14 10 -11 0 -22 -4 -26 -10 -8 -13 -35 -1 -35 16 0 22 -17 16 -24 -8 -5 -22
-6 -22 -19 -4 -10 13 -16 15 -21 8 -4 -7 -4 -17 0 -23 4 -8 -10 -10 -49 -7
-31 1 -53 -1 -50 -6 4 -5 -8 -6 -28 -2 -19 4 -56 9 -84 11 -27 2 -84 11 -125
20 -41 8 -111 20 -155 25 -46 6 -84 15 -90 23 -6 8 -21 18 -35 22 -14 4 -31
12 -37 17 -8 6 -13 6 -13 1z m960 -128 c7 -8 8 -15 2 -15 -5 0 -15 7 -22 15
-7 8 -8 15 -2 15 5 0 15 -7 22 -15z m-40 -11 c0 -10 -28 -34 -39 -34 -17 0
-13 18 7 29 19 12 32 14 32 5z"/>
<path d="M2970 3923 c0 -14 -2 -15 -9 -4 -5 7 -14 11 -19 7 -17 -10 -2 -36 19
-36 14 0 19 7 19 25 0 14 -2 25 -5 25 -3 0 -5 -8 -5 -17z"/>
<path d="M2907 3893 c-4 -3 -7 -10 -7 -14 0 -11 29 -19 35 -10 6 11 -20 33
-28 24z"/>
<path d="M605 3875 c22 -8 31 -14 21 -14 -11 -1 -17 -4 -13 -7 3 -3 15 -3 26
1 18 5 19 8 7 21 -8 8 -30 14 -48 13 l-33 -1 40 -13z"/>
<path d="M143 3864 c-3 -8 -2 -19 3 -24 5 -5 9 1 9 16 0 28 -3 30 -12 8z"/>
<path d="M978 3863 c7 -3 16 -2 19 1 4 3 -2 6 -13 5 -11 0 -14 -3 -6 -6z"/>
<path d="M141 3784 c0 -11 3 -14 6 -6 3 7 2 16 -1 19 -3 4 -6 -2 -5 -13z"/>
<path d="M5045 3781 c2 -5 -18 -11 -44 -14 -59 -7 -152 -52 -146 -70 6 -16
-13 -39 -48 -57 -32 -16 -71 -84 -81 -142 -7 -36 -5 -38 19 -38 18 0 31 -9 43
-30 15 -27 22 -30 69 -30 28 0 54 -4 57 -9 3 -4 23 -11 44 -15 21 -3 56 -17
77 -32 32 -22 42 -24 63 -15 13 7 30 28 39 51 11 27 26 44 51 56 35 16 36 16
54 -6 28 -35 32 -66 14 -119 -9 -28 -16 -66 -16 -85 0 -22 -5 -36 -12 -36 -23
0 -241 -110 -254 -128 -12 -16 -14 -16 -36 4 -13 12 -35 24 -50 28 -14 3 -40
18 -57 32 l-31 26 6 -30 c4 -19 1 -32 -7 -37 -7 -5 -10 -4 -6 3 5 6 0 8 -13 5
-16 -4 -18 -9 -9 -19 6 -7 19 -16 30 -19 23 -8 25 -25 3 -25 -8 0 -12 -4 -9
-10 3 -5 20 -10 37 -10 23 0 29 -4 24 -15 -3 -9 0 -15 9 -15 8 0 15 5 15 11 0
6 7 9 14 6 11 -4 13 -1 9 10 -5 12 -2 15 11 10 9 -4 35 1 56 9 32 13 43 14 55
4 11 -9 12 -17 5 -31 -6 -10 -9 -22 -8 -26 1 -4 -6 -23 -16 -42 -17 -33 -17
-35 -1 -47 19 -14 12 -34 -12 -34 -13 0 -13 -3 -3 -15 9 -11 10 -18 1 -28 -6
-8 -8 -17 -4 -20 10 -11 55 -8 49 2 -4 5 3 7 14 4 20 -5 20 -7 5 -30 -9 -14
-14 -31 -11 -38 2 -7 -2 -19 -10 -25 -22 -19 -17 -71 11 -102 13 -16 28 -28
32 -28 17 1 65 52 75 80 11 32 69 70 108 70 12 0 33 -12 47 -26 21 -22 25 -32
21 -68 -11 -90 -115 -247 -155 -232 -12 5 -15 4 -8 -3 10 -9 52 -15 91 -13 11
1 34 14 52 30 17 15 39 33 49 40 10 7 13 10 6 7 -7 -3 -9 2 -5 17 3 12 7 17
10 10 6 -18 20 -15 25 6 3 11 5 8 6 -9 0 -15 8 -32 16 -39 13 -11 15 33 15
388 l0 401 -32 4 -33 4 33 1 32 2 0 59 c0 33 -4 71 -9 84 -12 31 -92 81 -102
65 -5 -8 -14 -4 -28 13 -21 25 -28 44 -12 35 9 -6 43 28 59 60 8 16 8 26 -3
41 -21 30 -55 36 -64 11 -6 -18 -8 -18 -20 -4 -8 9 -21 16 -31 16 -10 0 -24
16 -35 40 -10 22 -24 40 -31 40 -7 0 -10 8 -7 18 2 10 -4 25 -14 34 -19 17
-97 42 -88 29z m360 -391 c8 -13 -5 -13 -25 0 -13 8 -13 10 2 10 9 0 20 -4 23
-10z m-465 -360 c0 -5 -5 -10 -11 -10 -5 0 -7 5 -4 10 3 6 8 10 11 10 2 0 4
-4 4 -10z"/>
<path d="M5268 3773 c7 -3 16 -2 19 1 4 3 -2 6 -13 5 -11 0 -14 -3 -6 -6z"/>
<path d="M5180 3750 c-9 -6 -10 -10 -3 -10 6 0 15 5 18 10 8 12 4 12 -15 0z"/>
<path d="M1330 3740 c0 -5 5 -10 11 -10 5 0 7 5 4 10 -3 6 -8 10 -11 10 -2 0
-4 -4 -4 -10z"/>
<path d="M1365 3720 c3 -5 8 -10 11 -10 2 0 4 5 4 10 0 6 -5 10 -11 10 -5 0
-7 -4 -4 -10z"/>
<path d="M1340 3711 c0 -9 30 -24 36 -18 2 1 -6 8 -16 15 -11 7 -20 8 -20 3z"/>
<path d="M1400 3659 c7 -68 -4 -91 -13 -27 -5 38 -19 57 -41 58 -5 0 -6 -25
-3 -55 3 -31 2 -55 -4 -55 -5 0 -8 6 -6 13 1 6 -10 13 -25 15 -19 2 -25 8 -21
18 4 10 0 12 -10 8 -9 -3 -18 -13 -21 -22 -2 -10 -2 6 1 33 l6 50 -20 -25
c-11 -14 -24 -38 -30 -54 -7 -23 -19 -33 -51 -44 -49 -16 -55 -32 -12 -32 49
0 34 -15 -40 -39 -38 -12 -70 -25 -70 -27 0 -8 56 5 154 37 48 16 92 26 98 23
5 -3 7 -56 4 -127 -3 -67 -8 -176 -11 -242 -6 -135 -12 -243 -21 -391 -4 -70
-3 -104 5 -108 8 -5 11 10 11 48 0 31 4 56 9 56 4 0 6 11 4 24 -5 23 -2 24 27
21 25 -3 31 -1 28 13 -2 10 -14 18 -32 20 l-29 4 7 156 c4 86 9 191 12 232 2
41 7 122 11 178 l6 104 56 -5 c31 -2 62 -2 69 0 19 7 16 137 -4 157 -8 9 -20
16 -25 16 -5 0 -9 7 -9 15 0 8 -4 15 -8 15 -4 0 -5 -27 -2 -61z m10 -99 c0
-14 -6 -20 -22 -19 -17 1 -19 2 -5 6 9 2 17 11 17 19 0 8 2 14 5 14 3 0 5 -9
5 -20z"/>
<path d="M4785 3700 c-3 -5 -3 -14 0 -20 3 -5 0 -7 -8 -4 -8 3 -20 -2 -27 -11
-10 -12 -10 -15 3 -15 9 0 27 5 41 12 24 10 24 12 8 25 -9 8 -11 12 -4 8 6 -3
12 -1 12 4 0 14 -17 14 -25 1z"/>
<path d="M166 3618 c3 -4 9 -8 15 -8 5 0 9 4 9 8 0 5 -7 9 -15 9 -8 0 -12 -4
-9 -9z"/>
<path d="M4690 3595 c-8 -9 -8 -15 -2 -15 12 0 26 19 19 26 -2 2 -10 -2 -17
-11z"/>
<path d="M1080 3575 c-10 -12 -9 -16 3 -21 20 -7 37 3 37 22 0 18 -24 18 -40
-1z"/>
<path d="M138 3563 c7 -3 16 -2 19 1 4 3 -2 6 -13 5 -11 0 -14 -3 -6 -6z"/>
<path d="M4666 3541 c-5 -7 -18 -16 -30 -21 -17 -7 -17 -9 -3 -9 22 -1 22 -17
0 -25 -15 -6 -15 -9 -3 -16 19 -12 30 -3 30 25 0 13 5 25 12 27 6 2 9 10 6 18
-3 11 -6 11 -12 1z"/>
<path d="M1237 3491 c-4 -17 -3 -21 5 -13 5 5 8 16 6 23 -3 8 -7 3 -11 -10z"/>
<path d="M5211 3425 c-1 -5 8 -21 19 -35 11 -14 20 -20 20 -14 0 7 -9 22 -20
35 -10 13 -19 20 -19 14z"/>
<path d="M1427 3395 c-8 -20 3 -47 17 -42 6 2 11 14 11 27 0 27 -20 38 -28 15z"/>
<path d="M3375 3398 c11 -7 26 -18 33 -25 15 -15 52 -18 52 -4 0 5 -21 16 -47
25 -55 19 -66 20 -38 4z"/>
<path d="M5165 3400 c-3 -5 -1 -10 4 -10 6 0 11 5 11 10 0 6 -2 10 -4 10 -3 0
-8 -4 -11 -10z"/>
<path d="M1207 3374 c-3 -3 -23 -12 -44 -19 l-38 -14 36 -1 c24 0 42 7 54 20
16 17 9 30 -8 14z"/>
<path d="M5170 3355 c0 -8 6 -15 14 -15 8 0 17 -4 20 -9 4 -5 -4 -7 -16 -4
-22 4 -22 4 -5 -11 23 -18 47 -10 47 15 0 12 -10 23 -26 29 -33 13 -34 13 -34
-5z"/>
<path d="M1330 3346 c0 -2 7 -7 16 -10 8 -3 12 -2 9 4 -6 10 -25 14 -25 6z"/>
<path d="M4752 3290 c-37 -17 -42 -22 -33 -39 6 -10 28 -32 48 -49 30 -24 40
-27 50 -17 8 9 8 16 1 23 -8 8 -4 14 16 22 35 13 53 3 29 -16 -17 -12 -17 -13
-1 -14 10 0 23 9 30 20 7 11 18 20 25 20 7 0 13 7 13 15 0 9 -9 15 -24 15 -17
0 -23 5 -22 18 2 26 -77 28 -132 2z"/>
<path d="M4638 3254 c24 -17 39 -14 27 5 -3 6 -16 11 -28 11 l-21 0 22 -16z"/>
<path d="M3896 3235 c-16 -8 -37 -15 -48 -15 -11 0 -16 -5 -13 -10 4 -6 14
-10 23 -8 10 1 22 -1 29 -5 6 -4 14 -3 18 3 3 5 3 10 -1 10 -4 0 1 6 12 14 27
20 13 28 -20 11z"/>
<path d="M4670 3219 c0 -5 5 -7 10 -4 6 3 10 8 10 11 0 2 -4 4 -10 4 -5 0 -10
-5 -10 -11z"/>
<path d="M1535 3180 c3 -5 1 -19 -5 -30 -8 -15 -8 -25 0 -38 11 -16 11 -16 6
2 -5 13 -2 17 9 13 8 -4 17 -2 20 3 7 12 -12 60 -25 60 -6 0 -8 -4 -5 -10z"/>
<path d="M2913 3083 c-23 -4 -29 -29 -24 -91 1 -12 -5 -25 -14 -28 -17 -7 -22
-74 -5 -74 6 0 10 -6 10 -12 0 -7 10 -14 23 -16 58 -7 82 -6 80 4 -1 6 10 9
28 6 27 -4 29 -8 30 -46 0 -22 3 -35 6 -28 2 6 11 12 20 12 11 0 14 9 11 38
-3 33 0 37 22 41 37 5 90 69 90 109 0 39 -12 42 -27 5 -11 -28 -11 -28 -18 -5
-4 12 -11 22 -16 22 -5 0 -14 11 -19 24 -11 31 -49 45 -62 23 -7 -14 -13 -14
-41 -3 -46 19 -69 24 -94 19z"/>
<path d="M2695 3057 c-17 -8 -36 -21 -44 -30 -7 -10 -21 -17 -30 -18 -12 0
-11 -2 4 -9 11 -5 42 -6 69 -3 37 5 52 2 60 -9 6 -8 21 -20 33 -26 19 -10 24
-9 33 7 16 30 12 55 -11 75 -28 24 -77 29 -114 13z"/>
<path d="M1 3010 c0 -19 8 -59 19 -88 11 -30 25 -76 31 -103 11 -49 31 -71 21
-24 -2 14 1 31 7 38 17 21 -23 131 -45 123 -6 -2 -9 7 -6 25 2 16 0 29 -6 29
-6 0 -13 8 -15 18 -3 9 -5 1 -6 -18z"/>
<path d="M4787 2839 c-16 -16 -25 -29 -21 -29 4 0 -4 -9 -18 -20 -15 -11 -32
-43 -43 -75 -15 -50 -16 -64 -5 -118 7 -34 15 -82 17 -107 3 -25 6 -46 8 -48
3 -4 90 138 98 160 4 11 2 17 -5 15 -7 -1 -18 10 -25 26 -8 15 -18 27 -24 27
-18 0 -8 52 22 111 37 74 35 98 -4 58z"/>
<path d="M110 2834 c0 -8 5 -12 11 -9 5 4 53 7 105 7 54 0 92 4 88 9 -3 5 -50
9 -105 9 -83 0 -99 -3 -99 -16z"/>
<path d="M337 2843 c-18 -17 -1 -21 66 -17 39 3 130 2 200 -3 122 -8 158 -3
126 18 -16 10 -382 12 -392 2z"/>
<path d="M1082 2836 c25 -19 168 -19 168 0 0 11 -19 14 -92 14 -79 -1 -90 -3
-76 -14z"/>
<path d="M1021 2771 c-14 -4 -27 -13 -29 -20 -3 -8 0 -11 7 -7 11 7 15 -15 11
-63 -1 -14 2 -21 9 -17 7 4 11 -1 11 -13 0 -14 -5 -19 -14 -15 -18 7 -36 -24
-37 -63 l-1 -28 -13 30 c-7 17 -16 29 -19 28 -16 -7 -26 -1 -26 15 -1 16 -1
16 -11 -1 -6 -11 -9 -30 -6 -43 2 -13 -2 -29 -10 -36 -8 -6 -10 -14 -4 -17 12
-8 22 -69 12 -76 -5 -2 -16 2 -26 9 -15 11 -23 11 -47 -3 -38 -22 -35 -32 7
-25 31 5 36 2 45 -20 8 -23 12 -25 36 -15 19 7 31 6 38 -1 7 -7 4 -10 -8 -10
-12 0 -16 -5 -12 -16 3 -9 6 -22 6 -30 0 -23 19 -16 25 9 4 13 14 28 23 34 16
9 18 5 17 -36 0 -46 -1 -46 -33 -43 -18 1 -32 -3 -32 -9 0 -6 -9 -9 -19 -6
-30 8 -125 -13 -135 -30 -6 -12 -10 -13 -16 -3 -5 8 -15 10 -26 6 -11 -4 -20
-7 -21 -7 -2 0 -17 -5 -35 -10 -18 -6 -42 -12 -52 -14 -11 -3 -22 -8 -25 -13
-3 -5 -18 -12 -33 -16 -17 -4 -28 -13 -28 -24 0 -15 -2 -15 -10 -2 -9 13 -12
13 -21 -2 -5 -10 -17 -18 -24 -18 -8 0 -15 -5 -15 -11 0 -6 -7 -8 -16 -5 -8 3
-21 0 -28 -6 -10 -10 -5 -16 25 -31 20 -10 62 -43 93 -73 34 -33 61 -52 68
-48 7 5 9 2 5 -9 -4 -10 -2 -14 7 -11 7 3 21 -4 31 -16 21 -23 14 -27 -9 -4
-15 14 -16 14 -16 -1 0 -9 5 -25 10 -36 8 -14 15 -16 28 -9 59 33 155 63 230
70 72 8 91 14 136 44 46 32 229 102 314 121 26 5 41 19 67 60 19 29 43 55 54
58 13 3 21 13 21 26 0 12 6 21 16 21 8 0 12 -4 9 -10 -4 -6 6 -10 24 -10 26 0
30 4 36 40 9 56 -2 120 -21 113 -22 -8 -17 24 7 40 20 14 20 16 2 26 -10 6
-12 11 -5 11 6 0 12 5 12 11 0 11 -28 9 -62 -6 -15 -6 -17 -1 -16 38 0 41 2
45 19 34 10 -6 15 -15 13 -19 -10 -15 34 -8 47 8 17 21 1 46 -36 55 -15 5 -38
18 -51 30 -13 12 -26 20 -29 17 -3 -3 -5 -85 -6 -182 0 -113 -3 -175 -9 -171
-12 7 -42 -20 -33 -29 4 -3 -26 -6 -65 -6 -39 0 -74 4 -77 10 -10 16 14 50 35
50 11 0 20 5 20 10 0 6 -5 10 -10 10 -6 0 -1 18 10 40 25 48 25 50 0 50 -17 0
-20 7 -20 42 0 23 -7 49 -15 58 -8 9 -25 44 -38 79 -13 34 -28 62 -33 62 -5 0
-8 7 -7 15 1 19 -51 43 -87 40 -14 -1 -29 4 -35 10 -14 17 -46 23 -74 15z m39
-152 c0 -6 -4 -7 -10 -4 -5 3 -10 11 -10 16 0 6 5 7 10 4 6 -3 10 -11 10 -16z
m464 -155 c6 -24 2 -44 -8 -33 -9 11 -15 59 -7 59 5 0 12 -12 15 -26z m-74
-184 c0 -11 -4 -20 -9 -20 -5 0 -7 9 -4 20 3 11 7 20 9 20 2 0 4 -9 4 -20z"/>
<path d="M539 2755 c-1 -3 -2 -10 -3 -15 -1 -14 -57 -42 -71 -36 -22 8 -45
-47 -62 -152 -8 -50 -18 -46 -16 6 2 35 1 42 -6 27 -5 -11 -10 -31 -10 -45 -1
-17 -4 -21 -9 -12 -5 8 -8 -1 -8 -23 1 -35 11 -47 19 -22 2 6 2 0 0 -15 -5
-34 8 -41 43 -24 63 31 81 30 114 -6 29 -31 34 -33 91 -30 39 1 72 -3 91 -13
17 -8 34 -13 38 -10 4 3 5 34 3 69 -5 58 -4 64 13 63 15 -2 18 4 16 28 -4 40
-23 67 -58 85 -16 8 -51 35 -77 60 -60 55 -104 82 -108 65z"/>
<path d="M991 2714 c0 -11 3 -14 6 -6 3 7 2 16 -1 19 -3 4 -6 -2 -5 -13z"/>
<path d="M2870 2721 c0 -6 5 -13 10 -16 6 -3 10 1 10 9 0 9 -4 16 -10 16 -5 0
-10 -4 -10 -9z"/>
<path d="M146 2709 c-42 -10 -79 -36 -71 -49 3 -5 -1 -11 -7 -14 -10 -5 -10
-7 0 -12 17 -8 15 -31 -4 -38 -9 -3 -14 -12 -11 -20 3 -7 0 -25 -7 -38 -12
-22 -11 -28 13 -55 14 -17 61 -47 104 -68 42 -21 77 -43 77 -49 0 -5 12 -27
26 -48 23 -32 26 -45 22 -93 -5 -54 -17 -82 -25 -57 -3 6 -18 12 -34 12 -29 0
-38 17 -20 36 6 5 -16 9 -60 10 -65 1 -81 -8 -34 -19 14 -3 11 -5 -10 -6 -16
0 -47 3 -67 8 l-38 9 0 -245 c0 -214 2 -244 15 -233 8 6 43 73 79 148 119 248
117 246 163 256 29 6 55 4 94 -7 29 -9 54 -15 55 -14 5 4 -24 192 -36 239 -7
26 -10 54 -7 62 3 8 1 16 -4 18 -6 2 -12 16 -12 31 -1 15 -5 27 -8 27 -3 0
-14 19 -24 43 -23 51 -115 180 -127 176 -2 -1 -21 -5 -42 -10z"/>
<path d="M3284 2673 c16 -82 19 -94 27 -99 5 -3 9 17 9 44 0 37 -5 53 -21 68
l-22 19 7 -32z"/>
<path d="M5215 2670 c-14 -16 -16 -25 -8 -42 10 -23 11 -22 32 12 11 19 21 38
21 43 0 14 -27 7 -45 -13z"/>
<path d="M2390 2665 c-6 -8 -26 -15 -43 -17 -21 -2 -31 -8 -29 -17 1 -7 -4
-18 -12 -25 -7 -6 -17 -27 -20 -47 -6 -31 -3 -37 19 -47 37 -17 64 -15 83 7
23 25 134 53 180 45 37 -6 154 -41 181 -54 39 -18 -1 -49 -51 -41 -25 3 -23
-20 2 -26 11 -3 20 -11 20 -19 0 -7 10 -12 24 -11 14 1 24 -2 23 -8 -1 -5 -14
-9 -29 -9 -22 2 -27 -3 -30 -25 -2 -18 -10 -27 -25 -29 -19 -3 -22 -9 -20 -48
1 -25 -4 -48 -10 -52 -18 -12 -19 -57 -1 -75 17 -17 119 -36 196 -37 55 0 122
42 122 76 0 15 6 24 16 24 13 0 14 3 4 15 -15 19 -6 47 14 39 9 -3 19 3 26 16
10 18 9 25 -4 38 -14 14 -16 14 -22 -1 -9 -24 -19 -21 -32 8 -18 39 -16 42 41
75 58 33 117 39 137 14 18 -20 82 -47 89 -36 8 11 51 10 51 -1 0 -4 5 -5 10
-2 6 4 10 25 8 47 -2 35 -3 38 -15 22 -12 -16 -13 -16 -13 8 0 14 -7 29 -16
32 -11 4 -14 15 -10 37 7 47 -2 60 -41 57 -19 -1 -37 -6 -39 -10 -3 -5 -20 3
-38 17 -18 14 -41 25 -50 25 -9 0 -34 9 -56 20 -45 23 -73 25 -135 9 -37 -9
-53 -8 -94 7 -44 16 -59 16 -153 5 -56 -7 -122 -18 -145 -24 -38 -10 -46 -9
-72 11 -25 18 -31 19 -41 7z m295 -35 c8 -13 -20 -24 -41 -16 -20 8 -9 26 16
26 10 0 22 -5 25 -10z m364 -149 c19 -12 -4 -24 -30 -16 -17 6 -19 9 -8 16 17
11 21 11 38 0z"/>
<path d="M1432 2584 c-7 -8 -12 -20 -9 -27 2 -7 9 -2 16 11 15 28 11 36 -7 16z"/>
<path d="M5212 2589 c2 -7 10 -15 17 -17 8 -3 12 1 9 9 -2 7 -10 15 -17 17 -8
3 -12 -1 -9 -9z"/>
<path d="M819 2578 c-7 -24 -7 -48 0 -48 9 0 21 24 21 41 0 8 -19 14 -21 7z"/>
<path d="M5188 2535 c-8 -19 -15 -35 -13 -35 13 0 65 24 65 30 0 7 -28 40 -34
40 -1 0 -9 -16 -18 -35z"/>
<path d="M1548 2533 c7 -3 16 -2 19 1 4 3 -2 6 -13 5 -11 0 -14 -3 -6 -6z"/>
<path d="M1410 2496 c0 -20 5 -36 10 -36 12 0 10 59 -2 66 -4 3 -8 -11 -8 -30z"/>
<path d="M760 2440 c0 -5 5 -10 10 -10 6 0 10 5 10 10 0 6 -4 10 -10 10 -5 0
-10 -4 -10 -10z"/>
<path d="M4740 2366 c0 -2 7 -6 15 -10 8 -3 15 -1 15 4 0 6 -7 10 -15 10 -8 0
-15 -2 -15 -4z"/>
<path d="M3230 2293 c1 -25 22 -51 38 -46 17 6 15 19 -5 43 -21 25 -33 26 -33
3z"/>
<path d="M5373 2225 c-29 -19 -56 -35 -61 -35 -5 0 -19 -11 -32 -25 -13 -14
-28 -25 -34 -25 -6 0 -38 -11 -71 -25 -87 -36 -89 -35 -80 30 5 43 3 55 -7 55
-7 0 -19 -9 -26 -20 -6 -11 -18 -17 -26 -14 -9 3 -17 -3 -21 -15 -4 -13 -15
-21 -30 -21 -15 0 -25 -7 -28 -21 -5 -18 -11 -21 -39 -17 -41 6 -78 -9 -78
-33 0 -24 -58 -49 -111 -49 -22 0 -39 -4 -39 -9 0 -5 -17 -20 -37 -32 -21 -13
-47 -31 -57 -41 -11 -10 -24 -18 -28 -18 -5 0 -26 -18 -48 -40 -22 -22 -47
-40 -57 -41 -11 0 -13 -3 -5 -6 9 -3 10 -9 3 -17 -8 -9 5 -17 52 -30 109 -31
116 -34 152 -70 28 -29 35 -43 35 -75 0 -40 15 -62 110 -161 39 -40 107 -117
130 -146 53 -67 203 -305 220 -348 5 -15 27 -64 49 -110 21 -46 59 -139 84
-207 49 -134 90 -224 107 -234 7 -4 5 -11 -4 -21 -19 -18 -27 -18 -20 1 9 23
-13 43 -41 37 -14 -2 -25 -9 -25 -14 0 -5 -4 -6 -10 -3 -14 8 -13 45 1 45 6 0
8 7 5 16 -3 8 -2 12 4 9 17 -11 10 19 -10 45 -11 14 -20 35 -20 46 0 12 -6 24
-14 27 -9 4 -12 17 -9 41 3 28 0 36 -13 36 -9 0 -18 9 -21 20 -3 11 -9 20 -13
20 -4 0 -7 16 -8 35 -1 37 -26 73 -37 55 -17 -28 -25 -5 -21 60 3 38 2 70 -2
70 -5 0 -8 10 -8 23 1 19 -4 22 -34 22 -52 0 -60 9 -53 61 5 40 4 46 -15 51
-12 3 -19 9 -16 14 3 5 -5 9 -17 9 -16 0 -20 5 -16 20 6 23 -38 95 -91 151
-74 78 -80 87 -68 99 8 9 7 11 -4 10 -29 -4 -37 0 -48 26 -7 14 -16 23 -21 20
-5 -3 -14 7 -21 23 -6 16 -23 34 -36 40 -14 6 -22 16 -19 21 3 6 1 10 -4 10
-15 0 -14 27 2 33 10 4 10 6 0 6 -8 1 -13 13 -12 29 l1 27 9 -25 c7 -20 8 -18
4 13 -5 46 -22 70 -46 64 -11 -3 -16 0 -13 8 3 7 -3 15 -13 18 -10 4 -36 13
-58 21 -49 19 -60 12 -12 -7 35 -15 64 -43 31 -30 -12 4 -15 3 -10 -5 9 -14
-7 -16 -32 -3 -9 5 -30 14 -47 21 -16 7 -43 18 -60 26 -16 8 -45 17 -63 20
-19 4 -50 22 -70 41 -42 40 -73 58 -119 67 -22 5 -30 12 -26 22 3 9 -1 14 -12
14 -11 0 -15 -5 -11 -15 3 -10 -1 -15 -11 -15 -9 0 -22 -8 -29 -17 -13 -17
-13 -17 -14 0 0 9 5 17 11 17 6 0 9 9 6 20 -3 11 0 23 5 27 10 6 -98 51 -297
125 -93 34 -331 98 -339 91 -2 -3 -2 -11 0 -17 3 -7 -3 -13 -12 -13 -9 0 -19
9 -22 19 -6 25 -22 12 -22 -20 -1 -25 -2 -25 -14 -9 -7 9 -18 17 -23 17 -6 0
-16 7 -23 15 -7 8 -17 15 -23 15 -7 0 -7 -4 1 -12 7 -7 12 -25 12 -40 0 -22 5
-28 22 -28 21 0 21 0 -2 -20 -17 -15 -35 -19 -71 -18 -28 2 -49 -1 -48 -7 0
-6 7 -9 15 -7 8 2 14 -5 14 -14 0 -13 -6 -15 -27 -10 -16 4 -23 3 -16 -1 8 -6
8 -13 -3 -27 -12 -17 -14 -18 -14 -3 0 11 -8 17 -22 17 -20 0 -20 -1 -5 -18
23 -25 21 -35 -3 -27 -14 5 -20 2 -20 -9 0 -9 -4 -16 -10 -16 -5 0 -10 6 -10
13 0 8 -3 8 -8 1 -4 -6 -15 -13 -24 -17 -13 -4 -16 -2 -11 11 3 9 11 23 16 30
5 7 7 16 3 20 -4 4 -12 -1 -17 -11 -12 -21 -29 -13 -29 13 0 15 -5 17 -27 11
-27 -7 -46 -41 -24 -41 6 0 11 -5 11 -10 0 -7 -8 -7 -22 1 -16 9 -23 9 -26 0
-2 -6 -10 -11 -18 -11 -8 0 -23 -5 -34 -12 -15 -10 -22 -9 -38 5 -11 10 -26
15 -36 11 -9 -3 -16 -1 -16 5 0 6 -10 10 -22 8 -17 -1 -22 3 -20 16 2 11 -4
17 -16 17 -24 0 -36 -28 -21 -46 9 -11 6 -14 -19 -14 -17 0 -34 -5 -38 -11 -4
-6 -20 -8 -40 -4 -27 5 -34 3 -34 -10 0 -17 -17 -19 -39 -6 -8 5 -11 16 -8 26
4 9 3 14 -3 10 -6 -3 -10 -14 -10 -22 0 -13 -5 -12 -22 7 l-22 24 -6 -24 c-3
-14 -16 -26 -31 -31 -14 -3 -37 -13 -50 -21 -29 -19 -110 -23 -106 -6 1 6 -11
12 -29 14 -20 1 -42 13 -61 33 -37 38 -47 39 -62 4 -18 -46 -2 -88 30 -78 16
5 19 1 19 -27 0 -19 7 -43 15 -54 19 -25 19 -48 0 -40 -8 3 -15 1 -15 -5 0 -6
9 -13 20 -16 23 -6 27 -31 5 -39 -24 -10 -8 -22 21 -16 25 4 26 3 20 -21 -6
-24 -3 -27 16 -24 14 1 22 -3 21 -10 -2 -7 4 -10 12 -7 11 5 15 -1 15 -24 0
-17 -5 -34 -10 -37 -8 -5 -7 -11 1 -21 9 -11 9 -18 1 -26 -8 -8 -13 -7 -18 5
-9 23 -47 23 -42 0 2 -13 18 -21 51 -27 26 -5 47 -13 47 -18 0 -4 7 -8 15 -8
9 0 15 9 15 25 0 21 5 25 30 25 32 0 41 -16 13 -23 -14 -4 -13 -5 4 -6 16 -1
21 -6 17 -16 -4 -10 0 -15 11 -15 11 0 15 5 11 15 -5 13 1 15 32 9 20 -3 47
-12 59 -20 12 -8 32 -14 44 -14 18 0 20 -2 8 -16 -11 -13 -9 -14 17 -8 16 4
34 11 40 15 6 5 15 4 21 -2 7 -7 19 -3 38 15 15 14 32 26 37 26 5 0 6 5 3 10
-4 6 10 9 37 9 l43 -2 -35 -6 c-31 -6 -32 -7 -12 -13 27 -8 29 -28 2 -35 -11
-3 -20 -12 -20 -19 0 -8 -8 -14 -19 -14 -23 0 -47 -25 -31 -35 13 -8 5 -22
-22 -36 -15 -8 -19 -8 -14 0 9 14 -4 14 -24 1 -13 -9 -13 -11 0 -20 12 -8 9
-10 -12 -10 -30 0 -37 17 -16 38 9 9 8 12 -5 12 -22 0 -22 9 1 26 15 12 15 13
1 14 -9 0 -21 -11 -27 -25 -12 -27 -14 -27 -140 -29 -35 -1 -66 2 -68 6 -7 12
-64 10 -64 -2 0 -5 4 -10 10 -10 5 0 20 -12 34 -27 l25 -27 -24 -16 c-19 -13
-22 -19 -13 -35 16 -29 16 -29 32 -16 9 7 17 8 20 2 10 -16 -5 -40 -27 -44
-13 -2 -6 -5 16 -6 36 -1 50 -14 25 -24 -8 -3 -6 -6 5 -6 19 -1 24 -21 5 -21
-9 0 -8 -4 2 -10 8 -5 51 -10 96 -10 77 0 81 1 92 25 7 14 23 30 36 35 14 5
35 28 46 51 16 30 26 40 39 36 23 -6 48 30 32 46 -18 18 -13 37 19 64 17 13
30 33 30 44 0 10 3 19 8 19 4 0 22 23 40 50 18 28 38 50 44 50 7 0 3 7 -8 15
-17 13 -17 14 -1 15 9 0 17 6 17 13 0 7 9 19 20 27 11 8 20 20 20 27 0 15 19
51 38 71 6 7 12 22 12 32 0 10 7 21 16 24 10 4 14 14 11 26 -3 13 0 20 10 20
8 0 20 14 26 30 6 17 15 30 19 30 4 0 8 11 8 24 0 17 17 39 56 73 31 26 67 59
80 72 13 13 27 22 30 19 9 -10 -21 -97 -69 -203 -25 -55 -71 -176 -102 -269
-31 -93 -71 -193 -88 -223 -18 -30 -37 -64 -44 -76 -7 -12 -30 -42 -53 -67
-22 -25 -40 -48 -40 -52 0 -4 -33 -29 -74 -56 -78 -52 -73 -51 -231 -56 -22 0
-44 -5 -48 -11 -6 -6 -10 -6 -14 3 -7 17 -38 15 -53 -4 -10 -11 -23 -14 -52
-9 -25 4 -38 3 -38 -4 0 -6 -13 -11 -30 -11 -16 0 -35 -6 -42 -13 -8 -9 -24
-11 -50 -7 -26 5 -44 3 -59 -8 -44 -31 -162 12 -246 89 -24 22 -46 39 -51 39
-12 0 -155 142 -189 188 -15 20 -30 39 -33 42 -3 3 -24 41 -47 85 -66 128
-110 304 -136 540 -2 22 -5 15 -11 -27 -8 -55 -30 -83 -46 -58 -5 7 -11 6 -20
-5 -7 -9 -19 -14 -27 -11 -8 3 -13 -2 -13 -14 0 -11 -5 -20 -11 -20 -11 0 -11
7 6 113 5 32 -5 35 -23 7 -7 -12 -17 -18 -22 -15 -5 3 -7 -13 -5 -36 5 -51
-26 -115 -61 -123 -13 -4 -31 -20 -41 -36 -17 -30 -33 -39 -33 -20 0 19 -26
10 -53 -18 -15 -16 -24 -31 -20 -35 3 -4 1 -7 -5 -7 -6 0 -27 -14 -46 -30 -23
-20 -37 -27 -41 -19 -4 6 -2 16 4 22 18 18 13 29 -14 25 -13 -2 -24 1 -24 6 1
5 -6 13 -15 18 -10 5 -16 22 -16 42 0 19 -7 47 -15 62 -8 16 -15 25 -15 20 0
-5 -9 -1 -20 9 -19 17 -20 17 -27 -1 -3 -11 -18 -34 -31 -51 -20 -27 -31 -33
-61 -33 -20 1 -54 7 -76 15 -46 17 -75 19 -75 6 0 -5 26 -37 57 -71 32 -34 61
-68 65 -75 12 -20 -76 -52 -163 -58 -73 -6 -76 -6 -89 18 -14 26 -25 31 -34
17 -3 -5 17 -28 44 -51 28 -24 50 -47 50 -51 0 -10 -72 -30 -111 -30 -44 0
-96 -33 -149 -93 -24 -26 -65 -58 -91 -72 -27 -13 -70 -40 -94 -59 -36 -27
-42 -35 -28 -40 9 -4 31 3 53 18 20 13 63 37 96 54 62 32 110 74 100 90 -3 5
1 18 9 28 8 10 15 14 15 8 0 -5 -5 -15 -12 -22 -9 -9 -9 -12 -1 -12 7 0 15 5
18 10 12 19 23 10 30 -22 10 -47 8 -99 -4 -111 -7 -7 -5 -14 6 -23 15 -10 13
-14 -17 -33 -19 -11 -43 -21 -52 -21 -36 0 -26 -35 17 -58 17 -9 15 -12 -19
-26 -21 -9 -42 -16 -47 -16 -5 0 -9 -7 -9 -17 0 -15 -1 -15 -18 0 -21 19 -57
23 -47 6 4 -6 -2 -5 -14 3 -27 16 -27 42 0 69 25 25 19 34 -16 25 -21 -5 -24
-11 -19 -31 4 -16 2 -25 -6 -25 -7 0 -9 -8 -5 -20 6 -19 4 -19 -22 -8 -15 7
-39 19 -53 28 -14 9 -42 27 -62 39 l-38 23 0 -37 c0 -20 4 -34 9 -31 4 3 17
-1 27 -9 16 -13 17 -16 4 -25 -12 -8 -9 -10 13 -10 21 0 27 -5 27 -22 0 -16 3
-19 11 -11 6 6 18 9 26 6 19 -7 -25 -39 -49 -35 -26 5 -30 -15 -6 -32 20 -15
21 -16 5 -34 -9 -10 -14 -22 -10 -25 3 -4 -9 -7 -28 -8 -26 0 -30 -2 -15 -8
13 -5 16 -10 9 -14 -14 -9 53 -77 76 -78 9 0 11 -3 4 -5 -6 -3 -31 4 -54 15
-24 12 -44 21 -46 21 -2 0 -3 -76 -3 -169 0 -143 3 -174 18 -201 16 -29 16
-31 0 -41 -15 -8 -18 -25 -18 -104 0 -67 4 -95 12 -95 9 0 9 -3 0 -12 -7 -7
-12 -31 -12 -55 l0 -43 2715 0 2715 0 0 1105 c0 1046 -1 1105 -17 1105 -17 1
-17 2 1 15 10 7 16 19 15 24 -2 6 -27 -5 -56 -24z m-726 -557 c-3 -8 -6 -5 -6
6 -1 11 2 17 5 13 3 -3 4 -12 1 -19z m-3342 -72 c-2 -35 -7 -74 -10 -88 -6
-22 6 -143 20 -215 l5 -28 -11 25 c-41 89 -44 370 -4 370 2 0 3 -29 0 -64z
m-95 -24 c0 -5 -18 -16 -40 -26 -49 -21 -80 -52 -80 -79 0 -16 -3 -17 -15 -7
-12 10 -13 16 -1 39 20 36 44 54 91 67 22 6 41 12 43 13 1 0 2 -3 2 -7z m55
-12 c3 -5 1 -10 -4 -10 -6 0 -11 5 -11 10 0 6 2 10 4 10 3 0 8 -4 11 -10z
m1713 -7 c-3 -19 -48 -32 -48 -14 0 6 7 11 15 11 8 0 15 5 15 10 0 6 5 10 11
10 6 0 9 -8 7 -17z m-60 -72 c-3 -27 -15 -41 -36 -41 -8 0 -12 12 -10 38 3 34
6 38 26 34 18 -4 22 -10 20 -31z m-111 -23 c2 -17 0 -19 -7 -8 -5 8 -6 18 -4
22 8 12 10 10 11 -14z m-1987 2 c13 -8 13 -10 -2 -10 -9 0 -20 5 -23 10 -8 13
5 13 25 0z m-130 -11 c0 -15 22 -35 48 -43 11 -4 41 0 66 8 27 9 54 12 66 8
19 -7 17 -9 -14 -20 -20 -7 -35 -18 -33 -24 1 -6 -4 -13 -10 -15 -7 -3 -13 0
-13 6 0 6 -7 8 -15 5 -8 -4 -22 -1 -29 5 -10 8 -16 9 -21 1 -3 -6 -10 -8 -15
-5 -5 3 -11 1 -15 -5 -7 -12 -55 -14 -55 -2 0 4 9 13 21 20 16 11 18 16 9 28
-7 8 -19 14 -26 14 -8 0 -14 7 -14 15 0 9 9 15 25 15 14 0 25 -5 25 -11z m360
3 c0 -9 -61 -34 -68 -28 -4 4 46 33 61 35 4 1 7 -3 7 -7z m277 -234 c-3 -8 -6
-5 -6 6 -1 11 2 17 5 13 3 -3 4 -12 1 -19z m10 -60 c-3 -7 -5 -2 -5 12 0 14 2
19 5 13 2 -7 2 -19 0 -25z m-1200 -284 c-3 -3 -12 -4 -19 -1 -8 3 -5 6 6 6 11
1 17 -2 13 -5z m5269 -549 c6 -23 -2 -63 -10 -54 -2 2 -6 21 -9 42 -6 41 9 51
19 12z m-19 -107 c-3 -7 -5 -2 -5 12 0 14 2 19 5 13 2 -7 2 -19 0 -25z"/>
<path d="M2880 1469 c0 -5 5 -7 10 -4 6 3 10 8 10 11 0 2 -4 4 -10 4 -5 0 -10
-5 -10 -11z"/>
<path d="M1553 2215 c0 -8 4 -15 9 -15 4 0 8 7 8 15 0 8 -4 15 -8 15 -5 0 -9
-7 -9 -15z"/>
<path d="M3210 2214 c0 -10 7 -14 22 -12 32 5 35 28 4 28 -17 0 -26 -5 -26
-16z"/>
<path d="M2600 2200 c0 -5 5 -10 10 -10 6 0 10 5 10 10 0 6 -4 10 -10 10 -5 0
-10 -4 -10 -10z"/>
<path d="M3357 2183 c-4 -3 -7 -13 -7 -22 0 -12 3 -12 12 -3 7 7 21 12 33 13
20 0 20 0 0 9 -26 11 -30 11 -38 3z"/>
<path d="M3840 2163 c0 -12 3 -14 8 -6 4 6 30 13 57 16 l50 3 -57 2 c-49 2
-58 -1 -58 -15z"/>
<path d="M4008 2163 c6 -2 18 -2 25 0 6 3 1 5 -13 5 -14 0 -19 -2 -12 -5z"/>
<path d="M4128 2153 c6 -2 18 -2 25 0 6 3 1 5 -13 5 -14 0 -19 -2 -12 -5z"/>
<path d="M4276 2139 c3 -5 33 -9 66 -9 34 0 59 2 57 4 -10 8 -129 13 -123 5z"/>
<path d="M4416 2131 c6 -6 35 -14 64 -18 31 -4 47 -9 37 -12 -12 -5 -8 -9 18
-17 20 -6 33 -9 30 -6 -2 3 5 14 18 25 20 18 32 19 137 14 65 -3 106 -2 95 2
-35 14 -412 25 -399 12z"/>
<path d="M3262 2088 c-12 -12 -17 -38 -6 -38 13 0 32 28 25 38 -5 9 -10 9 -19
0z"/>
<path d="M3285 2050 c3 -5 13 -10 21 -10 8 0 14 5 14 10 0 6 -9 10 -21 10 -11
0 -17 -4 -14 -10z"/>
<path d="M1531 2043 c-1 -6 -4 -20 -7 -30 -5 -17 -5 -17 6 0 6 10 9 23 6 30
-3 9 -5 9 -5 0z"/>
<path d="M4432 1993 c2 -20 8 -28 23 -28 31 0 28 49 -3 53 -20 3 -23 0 -20
-25z"/>
<path d="M1108 1977 c-22 -9 -27 -16 -24 -40 2 -16 8 -32 13 -36 6 -3 13 -13
16 -21 4 -11 6 -10 6 4 1 11 21 39 46 63 l45 43 -37 -1 c-21 -1 -50 -6 -65
-12z"/>
<path d="M1512 1955 c0 -16 2 -22 5 -12 2 9 2 23 0 30 -3 6 -5 -1 -5 -18z"/>
<path d="M2080 1940 c0 -5 7 -10 15 -10 9 0 18 -7 21 -15 9 -24 24 -17 24 10
0 21 -5 25 -30 25 -16 0 -30 -4 -30 -10z"/>
<path d="M4290 1825 c0 -18 55 -47 78 -43 11 2 1 12 -30 30 -35 19 -48 23 -48
13z"/>
<path d="M2172 1776 c1 -10 8 -17 13 -17 15 1 12 24 -3 29 -9 3 -13 -2 -10
-12z"/>
<path d="M4402 1768 c3 -7 15 -14 29 -16 23 -2 23 -2 5 13 -24 18 -39 20 -34
3z"/>
<path d="M1105 1710 c-4 -6 -14 -8 -23 -6 -10 3 -23 2 -30 -3 -17 -10 34 -71
60 -71 19 0 25 25 8 35 -8 5 -7 11 1 21 8 10 9 18 2 25 -8 8 -13 7 -18 -1z"/>
<path d="M1156 1674 c-17 -12 -17 -14 -4 -14 9 0 20 5 23 11 11 17 2 18 -19 3z"/>
<path d="M0 1611 l0 -50 45 16 c25 8 45 16 45 18 0 2 -20 18 -45 35 l-45 31 0
-50z"/>
<path d="M2357 1379 c7 -7 15 -10 18 -7 3 3 -2 9 -12 12 -14 6 -15 5 -6 -5z"/>
<path d="M2305 1360 c-3 -5 -1 -10 4 -10 6 0 11 5 11 10 0 6 -2 10 -4 10 -3 0
-8 -4 -11 -10z"/>
<path d="M2358 1343 c7 -3 16 -2 19 1 4 3 -2 6 -13 5 -11 0 -14 -3 -6 -6z"/>
<path d="M115 1321 c-54 -7 -95 -25 -95 -42 0 -6 -5 -7 -10 -4 -6 4 -10 -18
-10 -59 0 -63 1 -66 24 -66 13 0 26 -5 28 -11 2 -6 26 11 53 38 28 27 67 57
88 67 21 10 36 20 33 24 -3 3 -31 -7 -61 -23 -67 -33 -80 -28 -28 11 21 15 41
33 45 38 12 17 9 36 -4 35 -7 -1 -35 -5 -63 -8z"/>
<path d="M2418 1308 c9 -9 15 -9 24 0 9 9 7 12 -12 12 -19 0 -21 -3 -12 -12z"/>
<path d="M2698 1303 c7 -3 16 -2 19 1 4 3 -2 6 -13 5 -11 0 -14 -3 -6 -6z"/>
<path d="M269 1126 c-14 -7 -42 -16 -62 -20 -20 -4 -39 -12 -43 -18 -5 -8 5
-8 32 -3 21 5 57 11 79 14 27 4 41 12 43 24 4 20 -14 22 -49 3z"/>
<path d="M2510 1010 c-11 -7 -12 -12 -3 -21 15 -15 47 -7 51 14 4 19 -23 23
-48 7z"/>
</g>
</svg>
